<?xml version="1.0" encoding="UTF-8"?>
<svg xmlns="http://www.w3.org/2000/svg" xmlns:xlink="http://www.w3.org/1999/xlink" width="50px" height="50px" viewBox="0 0 50 50" version="1.1">
<g id="surface1">
<path style=" stroke:none;fill-rule:nonzero;fill:rgb(0%,0%,0%);fill-opacity:1;" d="M 25 4.25 C 13.542969 4.25 4.167969 13.605469 4.167969 25.125 C 4.167969 35.542969 11.792969 44.1875 21.75 45.75 L 21.75 31.167969 L 16.457031 31.167969 L 16.457031 25.125 L 21.75 25.125 L 21.75 20.519531 C 21.75 15.292969 24.855469 12.417969 29.625 12.417969 C 31.894531 12.417969 34.269531 12.8125 34.269531 12.8125 L 34.269531 17.957031 L 31.644531 17.957031 C 29.0625 17.957031 28.25 19.5625 28.25 21.207031 L 28.25 25.125 L 34.042969 25.125 L 33.105469 31.167969 L 28.25 31.167969 L 28.25 45.75 C 33.160156 44.972656 37.628906 42.46875 40.855469 38.6875 C 44.078125 34.90625 45.84375 30.09375 45.832031 25.125 C 45.832031 13.605469 36.457031 4.25 25 4.25 Z M 25 4.25 "/>
</g>
</svg>
